<svg width="127" height="29" viewBox="0 0 127 29" fill="none" xmlns="http://www.w3.org/2000/svg">
<path d="M5.21556 20.1799C4.4689 20.1799 3.7969 20.0519 3.19956 19.7959C2.60223 19.5292 2.1329 19.1559 1.79156 18.6759C1.45023 18.1959 1.27956 17.6359 1.27956 16.9959H3.23156C3.27423 17.4759 3.4609 17.8705 3.79156 18.1799C4.1329 18.4892 4.60756 18.6439 5.21556 18.6439C5.8449 18.6439 6.33556 18.4945 6.68756 18.1959C7.03956 17.8865 7.21556 17.4919 7.21556 17.0119C7.21556 16.6385 7.10356 16.3345 6.87956 16.0999C6.66623 15.8652 6.39423 15.6839 6.06356 15.5559C5.74356 15.4279 5.29556 15.2892 4.71956 15.1399C3.99423 14.9479 3.40223 14.7559 2.94356 14.5639C2.49556 14.3612 2.11156 14.0519 1.79156 13.6359C1.47156 13.2199 1.31156 12.6652 1.31156 11.9719C1.31156 11.3319 1.47156 10.7719 1.79156 10.2919C2.11156 9.81187 2.55956 9.44387 3.13556 9.18787C3.71156 8.93187 4.37823 8.80387 5.13556 8.80387C6.2129 8.80387 7.0929 9.07587 7.77556 9.61987C8.4689 10.1532 8.8529 10.8892 8.92756 11.8279H6.91156C6.87956 11.4225 6.68756 11.0759 6.33556 10.7879C5.98356 10.4999 5.51956 10.3559 4.94356 10.3559C4.4209 10.3559 3.99423 10.4892 3.66356 10.7559C3.3329 11.0225 3.16756 11.4065 3.16756 11.9079C3.16756 12.2492 3.2689 12.5319 3.47156 12.7559C3.6849 12.9692 3.95156 13.1399 4.27156 13.2679C4.59156 13.3959 5.0289 13.5345 5.58356 13.6839C6.31956 13.8865 6.9169 14.0892 7.37556 14.2919C7.8449 14.4945 8.23956 14.8092 8.55956 15.2359C8.89023 15.6519 9.05556 16.2119 9.05556 16.9159C9.05556 17.4812 8.9009 18.0145 8.59156 18.5159C8.2929 19.0172 7.85023 19.4225 7.26356 19.7319C6.68756 20.0305 6.0049 20.1799 5.21556 20.1799ZM12.1358 10.0839C11.8051 10.0839 11.5278 9.97187 11.3038 9.74787C11.0798 9.52387 10.9678 9.24654 10.9678 8.91587C10.9678 8.5852 11.0798 8.30787 11.3038 8.08387C11.5278 7.85987 11.8051 7.74787 12.1358 7.74787C12.4558 7.74787 12.7278 7.85987 12.9518 8.08387C13.1758 8.30787 13.2878 8.5852 13.2878 8.91587C13.2878 9.24654 13.1758 9.52387 12.9518 9.74787C12.7278 9.97187 12.4558 10.0839 12.1358 10.0839ZM13.0318 11.2519V20.0679H11.2078V11.2519H13.0318ZM18.9786 11.1079C19.6612 11.1079 20.2639 11.2465 20.7866 11.5239C21.3199 11.7905 21.7359 12.1265 22.0346 12.5319V11.2519H23.8746V20.2119C23.8746 21.0225 23.7039 21.7425 23.3626 22.3719C23.0212 23.0119 22.5252 23.5132 21.8746 23.8759C21.2346 24.2385 20.4666 24.4199 19.5706 24.4199C18.3759 24.4199 17.3839 24.1372 16.5946 23.5719C15.8052 23.0172 15.3572 22.2599 15.2506 21.2999H17.0586C17.1972 21.7585 17.4906 22.1265 17.9386 22.4039C18.3972 22.6919 18.9412 22.8359 19.5706 22.8359C20.3066 22.8359 20.8986 22.6119 21.3466 22.1639C21.8052 21.7159 22.0346 21.0652 22.0346 20.2119V18.7399C21.7252 19.1559 21.3039 19.5079 20.7706 19.7959C20.2479 20.0732 19.6506 20.2119 18.9786 20.2119C18.2106 20.2119 17.5066 20.0199 16.8666 19.6359C16.2372 19.2412 15.7359 18.6972 15.3626 18.0039C14.9999 17.2999 14.8186 16.5052 14.8186 15.6199C14.8186 14.7345 14.9999 13.9505 15.3626 13.2679C15.7359 12.5852 16.2372 12.0572 16.8666 11.6839C17.5066 11.2999 18.2106 11.1079 18.9786 11.1079ZM22.0346 15.6519C22.0346 15.0439 21.9066 14.5159 21.6506 14.0679C21.4052 13.6199 21.0799 13.2785 20.6746 13.0439C20.2692 12.8092 19.8319 12.6919 19.3626 12.6919C18.8932 12.6919 18.4559 12.8092 18.0506 13.0439C17.6452 13.2679 17.3146 13.6039 17.0586 14.0519C16.8132 14.4892 16.6906 15.0119 16.6906 15.6199C16.6906 16.2279 16.8132 16.7612 17.0586 17.2199C17.3146 17.6785 17.6452 18.0305 18.0506 18.2759C18.4666 18.5105 18.9039 18.6279 19.3626 18.6279C19.8319 18.6279 20.2692 18.5105 20.6746 18.2759C21.0799 18.0412 21.4052 17.6999 21.6506 17.2519C21.9066 16.7932 22.0346 16.2599 22.0346 15.6519ZM30.7183 11.1079C31.4116 11.1079 32.0303 11.2519 32.5743 11.5399C33.129 11.8279 33.561 12.2545 33.8703 12.8199C34.1796 13.3852 34.3343 14.0679 34.3343 14.8679V20.0679H32.5263V15.1399C32.5263 14.3505 32.329 13.7479 31.9343 13.3319C31.5396 12.9052 31.001 12.6919 30.3183 12.6919C29.6356 12.6919 29.0916 12.9052 28.6863 13.3319C28.2916 13.7479 28.0943 14.3505 28.0943 15.1399V20.0679H26.2703V11.2519H28.0943V12.2599C28.393 11.8972 28.7716 11.6145 29.2303 11.4119C29.6996 11.2092 30.1956 11.1079 30.7183 11.1079ZM44.6449 11.2519V20.0679H42.8209V19.0279C42.5329 19.3905 42.1543 19.6785 41.6849 19.8919C41.2263 20.0945 40.7356 20.1959 40.2129 20.1959C39.5196 20.1959 38.8956 20.0519 38.3409 19.7639C37.7969 19.4759 37.3649 19.0492 37.0449 18.4839C36.7356 17.9185 36.5809 17.2359 36.5809 16.4359V11.2519H38.3889V16.1639C38.3889 16.9532 38.5863 17.5612 38.9809 17.9879C39.3756 18.4039 39.9143 18.6119 40.5969 18.6119C41.2796 18.6119 41.8183 18.4039 42.2129 17.9879C42.6183 17.5612 42.8209 16.9532 42.8209 16.1639V11.2519H44.6449ZM48.8756 12.5479C49.1849 12.1425 49.6062 11.8012 50.1396 11.5239C50.6729 11.2465 51.2756 11.1079 51.9476 11.1079C52.7156 11.1079 53.4142 11.2999 54.0436 11.6839C54.6836 12.0572 55.1849 12.5852 55.5476 13.2679C55.9102 13.9505 56.0916 14.7345 56.0916 15.6199C56.0916 16.5052 55.9102 17.2999 55.5476 18.0039C55.1849 18.6972 54.6836 19.2412 54.0436 19.6359C53.4142 20.0199 52.7156 20.2119 51.9476 20.2119C51.2756 20.2119 50.6782 20.0785 50.1556 19.8119C49.6329 19.5345 49.2062 19.1932 48.8756 18.7879V24.2599H47.0516V11.2519H48.8756V12.5479ZM54.2356 15.6199C54.2356 15.0119 54.1076 14.4892 53.8516 14.0519C53.6062 13.6039 53.2756 13.2679 52.8596 13.0439C52.4542 12.8092 52.0169 12.6919 51.5476 12.6919C51.0889 12.6919 50.6516 12.8092 50.2356 13.0439C49.8302 13.2785 49.4996 13.6199 49.2436 14.0679C48.9982 14.5159 48.8756 15.0439 48.8756 15.6519C48.8756 16.2599 48.9982 16.7932 49.2436 17.2519C49.4996 17.6999 49.8302 18.0412 50.2356 18.2759C50.6516 18.5105 51.0889 18.6279 51.5476 18.6279C52.0169 18.6279 52.4542 18.5105 52.8596 18.2759C53.2756 18.0305 53.6062 17.6785 53.8516 17.2199C54.1076 16.7612 54.2356 16.2279 54.2356 15.6199ZM66.4996 11.1079C67.1929 11.1079 67.8116 11.2519 68.3556 11.5399C68.9102 11.8279 69.3422 12.2545 69.6516 12.8199C69.9609 13.3852 70.1156 14.0679 70.1156 14.8679V20.0679H68.3076V15.1399C68.3076 14.3505 68.1102 13.7479 67.7156 13.3319C67.3209 12.9052 66.7822 12.6919 66.0996 12.6919C65.4169 12.6919 64.8729 12.9052 64.4676 13.3319C64.0729 13.7479 63.8756 14.3505 63.8756 15.1399V20.0679H62.0516V11.2519H63.8756V12.2599C64.1742 11.8972 64.5529 11.6145 65.0116 11.4119C65.4809 11.2092 65.9769 11.1079 66.4996 11.1079ZM76.2662 20.2119C75.4342 20.2119 74.6822 20.0252 74.0102 19.6519C73.3382 19.2679 72.8102 18.7345 72.4262 18.0519C72.0422 17.3585 71.8502 16.5585 71.8502 15.6519C71.8502 14.7559 72.0475 13.9612 72.4422 13.2679C72.8369 12.5745 73.3755 12.0412 74.0582 11.6679C74.7409 11.2945 75.5035 11.1079 76.3462 11.1079C77.1889 11.1079 77.9515 11.2945 78.6342 11.6679C79.3169 12.0412 79.8555 12.5745 80.2502 13.2679C80.6449 13.9612 80.8422 14.7559 80.8422 15.6519C80.8422 16.5479 80.6395 17.3425 80.2342 18.0359C79.8289 18.7292 79.2742 19.2679 78.5702 19.6519C77.8769 20.0252 77.1089 20.2119 76.2662 20.2119ZM76.2662 18.6279C76.7355 18.6279 77.1729 18.5159 77.5782 18.2919C77.9942 18.0679 78.3302 17.7319 78.5862 17.2839C78.8422 16.8359 78.9702 16.2919 78.9702 15.6519C78.9702 15.0119 78.8475 14.4732 78.6022 14.0359C78.3569 13.5879 78.0315 13.2519 77.6262 13.0279C77.2209 12.8039 76.7835 12.6919 76.3142 12.6919C75.8449 12.6919 75.4075 12.8039 75.0022 13.0279C74.6075 13.2519 74.2929 13.5879 74.0582 14.0359C73.8235 14.4732 73.7062 15.0119 73.7062 15.6519C73.7062 16.6012 73.9462 17.3372 74.4262 17.8599C74.9169 18.3719 75.5302 18.6279 76.2662 18.6279ZM94.4853 11.2519L91.7493 20.0679H89.8293L88.0533 13.5559L86.2773 20.0679H84.3573L81.6053 11.2519H83.4613L85.3013 18.3399L87.1733 11.2519H89.0773L90.8693 18.3079L92.6933 11.2519H94.4853Z" fill="#2F70FE"/>
<g clip-path="url(#clip0)">
<path d="M117.5 23.5679C117.372 23.5679 117.244 23.5189 117.146 23.4219C116.951 23.2269 116.951 22.9099 117.146 22.7149L125.793 14.0679L117.147 5.42185C116.952 5.22685 116.952 4.90985 117.147 4.71485C117.342 4.51985 117.659 4.51985 117.854 4.71485L126.854 13.7149C127.049 13.9099 127.049 14.2269 126.854 14.4219L117.854 23.4219C117.756 23.5189 117.628 23.5679 117.5 23.5679Z" fill="#2F70FE"/>
<path d="M126.5 14.5679H103.5C103.224 14.5679 103 14.3439 103 14.0679C103 13.7919 103.224 13.5679 103.5 13.5679H126.5C126.776 13.5679 127 13.7919 127 14.0679C127 14.3439 126.776 14.5679 126.5 14.5679Z" fill="#2F70FE"/>
</g>
<defs>
<clipPath id="clip0">
<rect width="24" height="24" fill="white" transform="translate(103 2.06787)"/>
</clipPath>
</defs>
</svg>
